<?xml version="1.0" encoding="UTF-8"?>
<svg xmlns="http://www.w3.org/2000/svg" xmlns:xlink="http://www.w3.org/1999/xlink" viewBox="0 0 80 80" width="80px" height="80px">
<g id="surface54229706">
<path style=" stroke:none;fill-rule:nonzero;fill:rgb(0%,0%,0%);fill-opacity:1;" d="M 49 25.664062 L 49 16 C 49 12.140625 52.140625 9 56 9 C 59.859375 9 63 12.140625 63 16 L 63 25.664062 Z M 49 25.664062 "/>
<path style=" stroke:none;fill-rule:nonzero;fill:rgb(0%,0%,0%);fill-opacity:1;" d="M 56 10 C 59.308594 10 62 12.691406 62 16 L 62 24.664062 L 50 24.664062 L 50 16 C 50 12.691406 52.691406 10 56 10 M 56 8 C 51.582031 8 48 11.582031 48 16 C 48 16.457031 48 26.210938 48 26.664062 L 64 26.664062 C 64 26.210938 64 16.457031 64 16 C 64 11.582031 60.417969 8 56 8 Z M 56 8 "/>
<path style=" stroke:none;fill-rule:nonzero;fill:rgb(0%,0%,0%);fill-opacity:1;" d="M 47 52.921875 L 47 25.6875 C 47 22.855469 49.589844 17 57.59375 17 C 64.875 17 68.335938 22.289062 68.371094 22.339844 C 68.414062 22.453125 78.285156 43.175781 78.964844 52.921875 Z M 47 52.921875 "/>
<path style=" stroke:none;fill-rule:nonzero;fill:rgb(0%,0%,0%);fill-opacity:1;" d="M 57.59375 18 C 63.84375 18 67.007812 22.136719 67.472656 22.796875 C 68.28125 24.511719 76.683594 42.453125 77.863281 51.925781 L 48 51.925781 L 48 25.6875 C 48 23.695312 49.761719 18 57.59375 18 M 57.59375 16 C 48.640625 16 46 22.679688 46 25.6875 C 46 28.148438 46 36.449219 46 53.925781 L 80 53.925781 C 80 44.34375 69.210938 21.804688 69.210938 21.804688 C 69.210938 21.804688 65.507812 16 57.59375 16 Z M 57.59375 16 "/>
<path style=" stroke:none;fill-rule:nonzero;fill:rgb(0%,0%,0%);fill-opacity:1;" d="M 33 28.09375 C 34.371094 27.730469 37.488281 27 40.242188 27 C 42.949219 27 45.746094 27.707031 47 28.070312 L 47 44.652344 C 45.503906 44.238281 42.929688 43.667969 40.242188 43.667969 C 37.472656 43.667969 34.609375 44.277344 33 44.6875 Z M 33 28.09375 "/>
<path style=" stroke:none;fill-rule:nonzero;fill:rgb(0%,0%,0%);fill-opacity:1;" d="M 40.242188 28 C 42.394531 28 44.621094 28.476562 46 28.835938 L 46 43.371094 C 44.449219 43.015625 42.378906 42.664062 40.242188 42.664062 C 37.992188 42.664062 35.691406 43.050781 34 43.421875 L 34 28.871094 C 35.519531 28.503906 38.007812 28 40.242188 28 M 40.242188 26 C 36.40625 26 32 27.335938 32 27.335938 C 32 27.335938 32 31.582031 32 35.335938 C 32 36.28125 32 37.195312 32 38 C 32 40.300781 32 43.617188 32 46 C 32 46 36.269531 44.664062 40.242188 44.664062 C 44.214844 44.664062 48 46 48 46 C 48 43.617188 48 40.300781 48 38 C 48 37.195312 48 36.277344 48 35.335938 C 48 31.582031 48 27.335938 48 27.335938 C 48 27.335938 44.074219 26 40.242188 26 Z M 40.242188 26 "/>
<path style=" stroke:none;fill-rule:nonzero;fill:rgb(87.450981%,94.117647%,99.607843%);fill-opacity:1;" d="M 63 39 C 54.164062 39 47 46.164062 47 55 C 47 63.835938 54.164062 71 63 71 C 71.835938 71 79 63.835938 79 55 C 79 46.164062 71.835938 39 63 39 Z M 63 39 "/>
<path style=" stroke:none;fill-rule:nonzero;fill:rgb(0%,0%,0%);fill-opacity:1;" d="M 63 40 C 71.269531 40 78 46.726562 78 55 C 78 63.273438 71.269531 70 63 70 C 54.730469 70 48 63.273438 48 55 C 48 46.726562 54.730469 40 63 40 M 63 38 C 53.613281 38 46 45.613281 46 55 C 46 64.386719 53.613281 72 63 72 C 72.386719 72 80 64.386719 80 55 C 80 45.613281 72.386719 38 63 38 Z M 63 38 "/>
<path style="fill:none;stroke-width:8.6;stroke-linecap:round;stroke-linejoin:miter;stroke:rgb(100%,100%,100%);stroke-opacity:1;stroke-miterlimit:10;" d="M 120.4 120.4 C 120.4 110.901367 128.101367 103.2 137.6 103.2 " transform="matrix(0.465116,0,0,0.465116,0,0)"/>
<path style=" stroke:none;fill-rule:nonzero;fill:rgb(0%,0%,0%);fill-opacity:1;" d="M 17 25.664062 L 17 16 C 17 12.140625 20.140625 9 24 9 C 27.859375 9 31 12.140625 31 16 L 31 25.664062 Z M 17 25.664062 "/>
<path style=" stroke:none;fill-rule:nonzero;fill:rgb(0%,0%,0%);fill-opacity:1;" d="M 24 10 C 27.308594 10 30 12.691406 30 16 L 30 24.664062 L 18 24.664062 L 18 16 C 18 12.691406 20.691406 10 24 10 M 24 8 C 19.582031 8 16 11.582031 16 16 C 16 16.457031 16 26.210938 16 26.664062 L 32 26.664062 C 32 26.210938 32 16.457031 32 16 C 32 11.582031 28.417969 8 24 8 Z M 24 8 "/>
<path style=" stroke:none;fill-rule:nonzero;fill:rgb(0%,0%,0%);fill-opacity:1;" d="M 1.039062 52.921875 C 1.71875 43.171875 11.585938 22.449219 11.691406 22.234375 C 11.769531 22.125 15.171875 17 22.40625 17 C 30.410156 17 33 22.851562 33 25.6875 L 33 52.925781 L 1.039062 52.925781 Z M 1.039062 52.921875 "/>
<path style=" stroke:none;fill-rule:nonzero;fill:rgb(0%,0%,0%);fill-opacity:1;" d="M 22.40625 18 C 30.238281 18 32 23.695312 32 25.6875 L 32 51.925781 L 2.136719 51.925781 C 3.316406 42.453125 11.71875 24.511719 12.53125 22.796875 C 12.980469 22.152344 16.15625 18 22.40625 18 M 22.40625 16 C 14.492188 16 10.785156 21.804688 10.785156 21.804688 C 10.785156 21.804688 0 44.34375 0 53.925781 L 34 53.925781 C 34 36.453125 34 28.148438 34 25.6875 C 34 22.679688 31.359375 16 22.40625 16 Z M 22.40625 16 "/>
<path style=" stroke:none;fill-rule:nonzero;fill:rgb(87.450981%,94.117647%,99.607843%);fill-opacity:1;" d="M 17 39 C 8.164062 39 1 46.164062 1 55 C 1 63.835938 8.164062 71 17 71 C 25.835938 71 33 63.835938 33 55 C 33 46.164062 25.835938 39 17 39 Z M 17 39 "/>
<path style=" stroke:none;fill-rule:nonzero;fill:rgb(0%,0%,0%);fill-opacity:1;" d="M 17 40 C 25.269531 40 32 46.726562 32 55 C 32 63.273438 25.269531 70 17 70 C 8.730469 70 2 63.273438 2 55 C 2 46.726562 8.730469 40 17 40 M 17 38 C 7.613281 38 0 45.613281 0 55 C 0 64.386719 7.613281 72 17 72 C 26.386719 72 34 64.386719 34 55 C 34 45.613281 26.386719 38 17 38 Z M 17 38 "/>
<path style="fill:none;stroke-width:8.6;stroke-linecap:round;stroke-linejoin:miter;stroke:rgb(100%,100%,100%);stroke-opacity:1;stroke-miterlimit:10;" d="M 21.5 120.4 C 21.5 110.901367 29.201367 103.2 38.7 103.2 " transform="matrix(0.465116,0,0,0.465116,0,0)"/>
</g>
</svg>
